<svg width="1920" height="720" viewBox="0 0 1920 720" fill="none" xmlns="http://www.w3.org/2000/svg">
<path d="M1897.93 28.4486C1887.62 19.5918 1868.99 18.4714 1848.87 28.5019C1842.53 10.415 1843.87 40.2398 1826.01 27.8617C1801.5 27.3815 1803.07 23.7001 1808.41 47.8694C1812.34 48.5096 1805.66 58.5935 1800.29 62.435C1766.74 44.9883 1761.14 56.8328 1762.75 63.9822C1772.38 95.9412 1743.24 52.5645 1725.17 63.8755C1703.95 66.1164 1694.75 60.0874 1680.01 64.4624C1661.91 51.8176 1653.15 59.7139 1640.09 45.8419C1638.04 58.0066 1635.55 43.281 1632.67 29.1422C1628.27 24.6605 1618.97 27.8617 1614.37 28.3419C1596.43 53.7383 1590.02 52.3511 1573.5 61.0478C1558.83 81.5357 1543.78 68.0905 1529.38 66.3298C1515.68 62.3816 1509.03 71.5585 1494.09 77.1607C1481.77 66.7033 1469.41 94.5007 1457.05 77.1607C1440.13 103.571 1418.37 126.833 1402.32 75.9335C1394.36 89.6988 1389.96 64.4091 1381.3 62.6484C1374.99 57.313 1367.03 47.5492 1360.55 63.1819C1349.54 79.2414 1338.56 90.2323 1327.54 63.1819C1310.52 58.1133 1293.36 49.6834 1276.34 63.0219C1260.65 71.3451 1248.3 71.3984 1233.02 77.214C1216.6 64.9426 1198.67 89.0586 1183.06 70.1179C1167.78 66.1698 1149.68 89.1119 1136.82 56.4594C1126.01 31.383 1116.3 36.9852 1103.37 22.6864C1096.79 1.45152 1089.47 10.3083 1082.79 14.3632C1074.46 -9.37929 1068.92 14.79 1060.09 5.71985C1049.28 -0.62926 1033.94 -1.10946 1022.75 1.45152C1020.4 1.18476 1016.81 -2.65671 1011.91 14.7366C1006.8 4.70612 1001.7 15.8571 996.596 20.2854C984.005 14.0964 971.917 25.9943 959.426 21.1391C941.864 12.069 925.411 47.5493 906.977 28.2352C889.449 34.1574 871.921 30.1559 854.393 28.2352C838.007 29.7824 820.748 47.8694 804.496 28.5553C792.543 70.2246 782.604 -1.58963 771.153 13.883C750.033 -15.5683 724.883 66.4899 704.367 19.6452C690.7 32.7702 677.303 24.7672 663.972 20.2321C650.642 33.1437 637.345 -5.91131 623.846 13.8296C613.437 -7.03174 602.491 4.81282 592.048 14.043C580.699 10.5217 554.34 34.2641 551.553 42.6407C557.328 64.1423 574.352 89.9656 575.696 85.5906C554.575 118.403 531.003 79.7216 510.252 88.4183C497.257 102.771 484.229 110.187 471.1 106.932C457.971 92.3665 444.708 100.049 431.243 119.31C420.061 73.9061 410.76 150.949 400.317 107.359C390.378 135.423 375.973 77.8009 364.859 96.6881C357.472 100.476 356.028 71.8252 349.715 107.572C338.433 136.49 331.684 138.251 322.954 104.691C305.527 118.03 300.524 148.601 285.313 103.304C274.266 128.434 269.061 131.635 258.45 97.4351C242.601 68.5707 227.793 135.743 217.384 93.3269C195.491 42.3739 183.068 97.5418 179.072 62.3283C159.093 52.031 172.725 58.22 149.725 61.5813C145.326 39.3861 125.75 45.255 112.453 47.2825C107.853 67.717 89.5862 64.6225 78.0354 40.9334C70.2789 43.2276 44.8603 36.6117 42.8792 41.5203C13.2633 49.9502 19.8782 68.5707 15.9496 68.6774C12.6253 79.4549 9.90552 74.493 0.0671561 74.2795L0.033578 298.259L0 464.029V602.483C29.5823 615.874 42.7784 618.756 40.9652 596.614C51.5423 602.269 56.3104 588.877 57.7542 583.008C57.6199 583.862 57.452 584.983 57.2841 586.37C69.5401 575.112 86.6314 607.871 92.3061 585.036C75.7857 590.478 119.941 569.937 123.299 588.877C134.614 620.57 147.844 625.958 165.876 599.655C173.397 619.289 209.191 602.536 207.009 621.103C218.761 617.422 240.956 622.33 277.12 621.797C305.795 610.806 322.752 621.743 346.458 621.797C359.587 620.57 372.817 646.82 385.946 621.423C399.075 630.6 413.279 606.751 422.412 634.228C425.971 628.679 424.997 646.82 429.127 650.715C439.1 646.233 468.112 651.035 480.133 655.676C508.506 667.201 536.879 658.718 565.253 655.676C579.289 641.591 593.358 642.125 607.393 655.623C626.063 662.079 643.993 682.3 662.629 661.599C679.586 686.942 693.152 642.498 707.355 655.836C715.078 644.739 724.312 676.271 732.606 644.152C749.865 653.596 760.677 654.983 775.955 636.042C785.558 622.81 787.842 605.044 801.273 622.65C812.622 640.684 818.331 644.899 827.497 610.646C832.165 600.829 835.254 591.705 840.895 599.388C854.058 602.003 881.021 600.562 894.754 599.388C917.386 633.375 940.051 604.243 962.716 599.388C980.11 645.646 997.503 614.06 1014.9 599.441C1023.49 611.126 1037.16 587.97 1045.22 598.641C1054.69 627.932 1050.12 624.144 1058.28 609.685C1070.6 623.931 1082.52 610.806 1097.9 637.216C1111.33 647.46 1121.51 649.274 1135.78 644.419C1154.08 644.846 1168.92 645.059 1186.61 656.05C1201.42 682.247 1211.97 646.073 1222.91 668.108C1228.22 656.103 1232.31 665.013 1237.79 683.901C1253.94 723.863 1271.77 688.862 1293.29 713.032C1324.18 737.735 1353.56 687.315 1384.05 706.523C1396.68 692.704 1414.48 697.079 1425.59 703.962C1440.2 719.861 1451.55 678.779 1464.91 667.148C1479.01 687.475 1491.77 667.628 1507.59 654.823C1525.42 640.577 1529.48 618.969 1541.27 624.144C1555.4 586.21 1582.84 612.62 1602.55 615.181C1631.66 627.932 1657.21 580.341 1685.15 620.836C1701.47 622.063 1707.54 591.652 1722.22 628.999C1738.23 626.172 1751.7 643.192 1763.96 633.375C1784.71 622.971 1780.21 634.121 1790.48 627.772C1800.25 620.836 1814.46 600.935 1824.73 621.743C1843.9 604.724 1878.15 591.332 1876.64 597.147C1894.74 588.984 1904.28 615.608 1912.17 624.571C1912.1 637.323 1915.39 641.378 1920.9 642.018L1920.93 464.563L1920.97 298.899L1921 13.4561C1914.65 17.2443 1907.8 22.3662 1897.93 28.4486Z" fill="white"/>
<path d="M1897.93 54.0583C1887.62 45.8952 1868.99 44.8281 1848.87 54.1117C1842.53 37.4119 1843.87 64.9425 1826.01 53.5248C1801.5 53.0979 1803.07 49.6833 1808.41 71.9852C1812.34 72.5721 1805.66 81.909 1800.29 85.4304C1766.74 69.3175 1761.13 80.2551 1762.75 86.8709C1772.38 116.376 1743.27 76.3602 1725.17 86.8176C1703.95 88.845 1694.75 83.3496 1680.01 87.3511C1661.91 75.6666 1653.15 82.9761 1640.09 70.1178C1638.04 81.3755 1635.55 67.7702 1632.67 54.6985C1628.27 50.5903 1618.97 53.5248 1614.37 53.9516C1596.43 77.4273 1590.02 76.0934 1573.5 84.0965C1558.83 102.984 1543.78 90.6057 1529.38 89.0051C1515.68 85.377 1509.03 93.8069 1494.09 98.9822C1481.77 89.3252 1469.41 114.988 1457.05 98.9822C1440.13 123.365 1418.37 144.867 1402.32 97.8618C1394.36 110.56 1389.96 87.2444 1381.3 85.5904C1374.99 80.6819 1367.03 71.6117 1360.55 86.0706C1349.54 100.903 1338.56 110.987 1327.54 86.0706C1310.52 81.3755 1293.36 73.6392 1276.34 85.9106C1260.65 93.5935 1248.3 93.6468 1233.05 98.9822C1216.63 87.6712 1198.7 109.92 1183.09 92.4197C1167.81 88.7917 1149.71 109.92 1136.85 79.8282C1126.04 56.6727 1116.34 61.848 1103.41 48.6696C1096.83 29.0887 1089.51 37.1985 1082.82 40.9866C1074.5 19.0582 1068.96 41.4134 1060.13 32.9835C1049.31 27.1146 1033.97 26.6878 1022.79 29.0354C1020.44 28.8219 1016.84 25.2472 1011.94 41.2534C1006.84 31.9698 1001.73 42.2671 996.63 46.3754C984.038 40.6665 971.95 51.6574 959.459 47.1223C941.898 38.7458 925.445 71.4517 907.01 53.6848C889.482 59.1269 871.955 55.4989 854.427 53.6848C838.041 55.1254 820.782 71.7718 804.53 54.005C792.576 92.4731 782.637 26.2076 771.187 40.4531C750.066 13.2426 724.916 89.0051 704.4 45.7885C690.734 57.8998 677.336 50.5369 664.006 46.322C650.675 58.2199 637.379 22.2061 623.88 40.3997C613.471 21.139 602.524 32.0765 592.082 40.6131C580.732 37.3585 554.374 59.287 551.587 67.0233C557.362 86.8709 574.386 110.72 575.729 106.665C554.609 136.97 531.037 101.223 510.286 109.226C497.291 122.458 484.263 129.287 471.134 126.299C458.005 112.854 444.741 119.95 431.276 137.717C420.095 95.8344 410.794 166.902 400.351 126.726C390.412 152.603 376.007 99.4624 364.893 116.909C357.505 120.43 356.062 93.967 349.749 126.94C338.467 153.617 331.718 155.271 322.987 124.272C305.594 136.597 300.557 164.821 285.346 122.991C274.299 146.2 269.094 149.135 258.484 117.603C242.635 90.9792 227.827 152.976 217.418 113.815C195.525 66.8098 183.101 117.656 179.105 85.2169C159.126 75.72 172.759 81.4288 149.758 84.5233C145.359 64.0888 125.783 69.4776 112.486 71.345C107.886 90.1789 89.6198 87.3511 78.069 65.476C70.3124 67.5568 44.8938 61.4745 42.9127 66.0096C13.2969 73.7459 19.9118 90.9792 15.9832 91.0325C12.6589 101.01 9.9391 96.3679 0.100734 96.2078L0.0671561 302.901L0 455.973V583.755C29.5823 596.08 42.7784 598.748 40.9652 578.313C51.5423 583.542 56.3104 571.164 57.7542 565.775C57.6199 566.575 57.452 567.589 57.2841 568.87C69.5401 558.519 86.6314 588.717 92.3061 567.589C75.7857 572.604 119.941 553.664 123.299 571.11C134.614 600.348 147.844 605.31 165.876 581.088C173.397 599.228 209.191 583.755 207.009 600.882C218.761 597.521 240.956 602.002 277.12 601.522C305.795 591.385 322.752 601.469 346.458 601.522C359.587 600.402 372.817 624.624 385.946 601.202C399.075 609.685 413.279 587.65 422.412 612.993C425.971 607.871 424.997 624.624 429.127 628.199C439.1 624.037 468.112 628.466 480.133 632.787C508.506 643.458 536.879 635.615 565.253 632.787C579.288 619.769 593.358 620.303 607.393 632.734C626.063 638.71 643.993 657.33 662.629 638.283C679.586 661.705 693.152 620.623 707.355 632.948C715.078 622.704 724.312 651.781 732.606 622.17C749.865 630.867 760.677 632.147 775.955 614.701C785.558 602.482 787.842 586.103 801.273 602.322C812.622 618.969 818.331 622.864 827.497 591.225C832.165 582.155 835.254 573.725 840.895 580.821C854.058 583.222 881.021 581.888 894.754 580.821C917.386 612.193 940.051 585.302 962.716 580.821C980.11 623.504 997.503 594.319 1014.9 580.874C1023.49 591.652 1037.16 570.31 1045.22 580.127C1054.69 607.124 1050.12 603.656 1058.28 590.318C1070.6 603.443 1082.52 591.332 1097.9 615.714C1111.33 625.158 1121.51 626.865 1135.78 622.33C1154.08 622.704 1168.92 622.917 1186.61 633.054C1201.42 657.224 1211.97 623.877 1222.91 644.205C1228.22 633.108 1232.31 641.324 1237.79 658.771C1253.94 695.638 1271.77 663.359 1293.29 685.661C1324.18 708.443 1353.56 661.919 1384.05 679.685C1396.68 666.934 1414.48 670.989 1425.59 677.338C1440.2 692.01 1451.55 654.129 1464.91 643.352C1479.01 662.132 1491.77 643.778 1507.59 631.987C1525.42 618.809 1529.45 598.908 1541.27 603.656C1555.4 568.656 1582.84 593.039 1602.55 595.386C1631.66 607.124 1657.21 563.214 1685.15 600.615C1701.47 601.736 1707.54 573.725 1722.22 608.138C1738.23 605.524 1751.7 621.263 1763.96 612.14C1784.71 602.536 1780.21 612.833 1790.48 606.964C1800.25 600.562 1814.46 582.155 1824.73 601.362C1843.9 585.676 1878.15 573.298 1876.64 578.687C1894.74 571.164 1904.28 595.76 1912.17 603.976C1912.1 615.768 1915.39 619.502 1920.9 620.089L1920.93 456.293L1920.97 303.434L1921 40.0262C1914.65 43.7076 1907.8 48.4028 1897.93 54.0583Z" fill="white"/>
<path d="M1897.93 54.0583C1887.62 45.8952 1868.99 44.8281 1848.87 54.1117C1842.53 37.4119 1843.87 64.9425 1826.01 53.5248C1801.5 53.0979 1803.07 49.6833 1808.41 71.9852C1812.34 72.5721 1805.66 81.909 1800.29 85.4304C1766.74 69.3175 1761.13 80.2551 1762.75 86.8709C1772.38 116.376 1743.27 76.3602 1725.17 86.8176C1703.95 88.845 1694.75 83.3496 1680.01 87.3511C1661.91 75.6666 1653.15 82.9761 1640.09 70.1178C1638.04 81.3755 1635.55 67.7702 1632.67 54.6985C1628.27 50.5903 1618.97 53.5248 1614.37 53.9516C1596.43 77.4273 1590.02 76.0934 1573.5 84.0965C1558.83 102.984 1543.78 90.6057 1529.38 89.0051C1515.68 85.377 1509.03 93.8069 1494.09 98.9822C1481.77 89.3252 1469.41 114.988 1457.05 98.9822C1440.13 123.365 1418.37 144.867 1402.32 97.8618C1394.36 110.56 1389.96 87.2444 1381.3 85.5904C1374.99 80.6819 1367.03 71.6117 1360.55 86.0706C1349.54 100.903 1338.56 110.987 1327.54 86.0706C1310.52 81.3755 1293.36 73.6392 1276.34 85.9106C1260.65 93.5935 1248.3 93.6468 1233.05 98.9822C1216.63 87.6712 1198.7 109.92 1183.09 92.4197C1167.81 88.7917 1149.71 109.92 1136.85 79.8282C1126.04 56.6727 1116.34 61.848 1103.41 48.6696C1096.83 29.0887 1089.51 37.1985 1082.82 40.9866C1074.5 19.0582 1068.96 41.4134 1060.13 32.9835C1049.31 27.1146 1033.97 26.6878 1022.79 29.0354C1020.44 28.8219 1016.84 25.2472 1011.94 41.2534C1006.84 31.9698 1001.73 42.2671 996.63 46.3754C984.038 40.6665 971.95 51.6574 959.459 47.1223C941.898 38.7458 925.445 71.4517 907.01 53.6848C889.482 59.1269 871.955 55.4989 854.427 53.6848C838.041 55.1254 820.782 71.7718 804.53 54.005C792.576 92.4731 782.637 26.2076 771.187 40.4531C750.066 13.2426 724.916 89.0051 704.4 45.7885C690.734 57.8998 677.336 50.5369 664.006 46.322C650.675 58.2199 637.379 22.2061 623.88 40.3997C613.471 21.139 602.524 32.0765 592.082 40.6131C580.732 37.3585 554.374 59.287 551.587 67.0233C557.362 86.8709 574.386 110.72 575.729 106.665C554.609 136.97 531.037 101.223 510.286 109.226C497.291 122.458 484.263 129.287 471.134 126.299C458.005 112.854 444.741 119.95 431.276 137.717C420.095 95.8344 410.794 166.902 400.351 126.726C390.412 152.603 376.007 99.4624 364.893 116.909C357.505 120.43 356.062 93.967 349.749 126.94C338.467 153.617 331.718 155.271 322.987 124.272C305.594 136.597 300.557 164.821 285.346 122.991C274.299 146.2 269.094 149.135 258.484 117.603C242.635 90.9792 227.827 152.976 217.418 113.815C195.525 66.8098 183.101 117.656 179.105 85.2169C159.126 75.72 172.759 81.4288 149.758 84.5233C145.359 64.0888 125.783 69.4776 112.486 71.345C107.886 90.1789 89.6198 87.3511 78.069 65.476C70.3124 67.5568 44.8938 61.4745 42.9127 66.0096C13.2969 73.7459 19.9118 90.9792 15.9832 91.0325C12.6589 101.01 9.9391 96.3679 0.100734 96.2078L0.0671561 302.901L0 455.973V583.755C29.5823 596.08 42.7784 598.748 40.9652 578.313C51.5423 583.542 56.3104 571.164 57.7542 565.775C57.6199 566.575 57.452 567.589 57.2841 568.87C69.5401 558.519 86.6314 588.717 92.3061 567.589C75.7857 572.604 119.941 553.664 123.299 571.11C134.614 600.348 147.844 605.31 165.876 581.088C173.397 599.228 209.191 583.755 207.009 600.882C218.761 597.521 240.956 602.002 277.12 601.522C305.795 591.385 322.752 601.469 346.458 601.522C359.587 600.402 372.817 624.624 385.946 601.202C399.075 609.685 413.279 587.65 422.412 612.993C425.971 607.871 424.997 624.624 429.127 628.199C439.1 624.037 468.112 628.466 480.133 632.787C508.506 643.458 536.879 635.615 565.253 632.787C579.288 619.769 593.358 620.303 607.393 632.734C626.063 638.71 643.993 657.33 662.629 638.283C679.586 661.705 693.152 620.623 707.355 632.948C715.078 622.704 724.312 651.781 732.606 622.17C749.865 630.867 760.677 632.147 775.955 614.701C785.558 602.482 787.842 586.103 801.273 602.322C812.622 618.969 818.331 622.864 827.497 591.225C832.165 582.155 835.254 573.725 840.895 580.821C854.058 583.222 881.021 581.888 894.754 580.821C917.386 612.193 940.051 585.302 962.716 580.821C980.11 623.504 997.503 594.319 1014.9 580.874C1023.49 591.652 1037.16 570.31 1045.22 580.127C1054.69 607.124 1050.12 603.656 1058.28 590.318C1070.6 603.443 1082.52 591.332 1097.9 615.714C1111.33 625.158 1121.51 626.865 1135.78 622.33C1154.08 622.704 1168.92 622.917 1186.61 633.054C1201.42 657.224 1211.97 623.877 1222.91 644.205C1228.22 633.108 1232.31 641.324 1237.79 658.771C1253.94 695.638 1271.77 663.359 1293.29 685.661C1324.18 708.443 1353.56 661.919 1384.05 679.685C1396.68 666.934 1414.48 670.989 1425.59 677.338C1440.2 692.01 1451.55 654.129 1464.91 643.352C1479.01 662.132 1491.77 643.778 1507.59 631.987C1525.42 618.809 1529.45 598.908 1541.27 603.656C1555.4 568.656 1582.84 593.039 1602.55 595.386C1631.66 607.124 1657.21 563.214 1685.15 600.615C1701.47 601.736 1707.54 573.725 1722.22 608.138C1738.23 605.524 1751.7 621.263 1763.96 612.14C1784.71 602.536 1780.21 612.833 1790.48 606.964C1800.25 600.562 1814.46 582.155 1824.73 601.362C1843.9 585.676 1878.15 573.298 1876.64 578.687C1894.74 571.164 1904.28 595.76 1912.17 603.976C1912.1 615.768 1915.39 619.502 1920.9 620.089L1920.93 456.293L1920.97 303.434L1921 40.0262C1914.65 43.7076 1907.8 48.4028 1897.93 54.0583Z" fill="white"/>
<path opacity="0.4" d="M1897.93 54.0583C1887.62 45.8952 1868.99 44.8281 1848.87 54.1117C1842.53 37.4119 1843.87 64.9425 1826.01 53.5248C1801.5 53.0979 1803.07 49.6833 1808.41 71.9852C1812.34 72.5721 1805.66 81.909 1800.29 85.4304C1766.74 69.3175 1761.14 80.2551 1762.75 86.8709C1772.38 116.376 1743.27 76.3602 1725.17 86.8176C1703.95 88.845 1694.75 83.3496 1680.01 87.3511C1661.91 75.6666 1653.15 82.9761 1640.09 70.1178C1638.04 81.3755 1635.55 67.7702 1632.67 54.6985C1628.27 50.5903 1618.97 53.5248 1614.37 53.9516C1596.43 77.4273 1590.02 76.0934 1573.5 84.0965C1558.83 102.984 1543.78 90.6057 1529.38 89.0051C1515.68 85.377 1509.03 93.8069 1494.09 98.9822C1481.77 89.3252 1469.41 114.988 1457.05 98.9822C1440.13 123.365 1418.37 144.867 1402.32 97.8618C1394.36 110.56 1389.96 87.2444 1381.3 85.5904C1374.99 80.6819 1367.03 71.6117 1360.55 86.0706C1349.54 100.903 1338.56 110.987 1327.54 86.0706C1310.52 81.3755 1293.36 73.6392 1276.34 85.9106C1260.65 93.5935 1248.3 93.6469 1233.05 98.9822C1216.63 87.6712 1198.7 109.92 1183.09 92.4197C1167.81 88.7917 1149.71 109.92 1136.85 79.8282C1126.04 56.6727 1116.34 61.848 1103.41 48.6696C1096.83 29.0887 1089.51 37.1985 1082.82 40.9866C1074.5 19.0582 1068.96 41.4134 1060.13 32.9835C1049.31 27.1146 1033.97 26.6878 1022.79 29.0354C1020.44 28.8219 1016.84 25.2472 1011.94 41.2534C1006.84 31.9698 1001.73 42.2671 996.63 46.3754C984.038 40.6665 971.95 51.6574 959.459 47.1223C941.898 38.7458 925.445 71.4517 907.01 53.6848C889.482 59.1269 871.955 55.4989 854.427 53.6848C838.041 55.1254 820.782 71.7718 804.53 54.005C792.576 92.4731 782.637 26.2076 771.187 40.4531C750.066 13.2426 724.916 89.0051 704.4 45.7885C690.734 57.8998 677.336 50.5369 664.006 46.322C650.675 58.2199 637.378 22.2061 623.88 40.3997C613.471 21.139 602.524 32.0765 592.082 40.6131C580.732 37.3585 554.374 59.287 551.587 67.0233C557.362 86.8709 574.386 110.72 575.729 106.665C554.609 136.97 531.037 101.223 510.286 109.226C497.291 122.458 484.263 129.287 471.134 126.299C458.005 112.854 444.741 119.95 431.276 137.717C420.095 95.8344 410.794 166.902 400.351 126.726C390.412 152.603 376.007 99.4624 364.893 116.909C357.505 120.43 356.062 93.967 349.749 126.94C338.467 153.617 331.718 155.271 322.987 124.272C305.594 136.597 300.557 164.821 285.346 122.991C274.299 146.2 269.094 149.135 258.484 117.603C242.635 90.9792 227.827 152.976 217.418 113.815C195.525 66.8098 183.101 117.656 179.105 85.2169C159.126 75.72 172.759 81.4288 149.758 84.5233C145.359 64.0888 125.783 69.4776 112.486 71.345C107.886 90.1789 89.6198 87.3511 78.069 65.476C70.3124 67.5568 44.8938 61.4745 42.9127 66.0096C13.2969 73.7459 19.9118 90.9792 15.9832 91.0325C12.6589 101.01 9.9391 96.3679 0.100734 96.2078L0.0671561 302.901L0 455.973V583.755C29.5823 596.08 42.7784 598.748 40.9652 578.313C51.5423 583.542 56.3104 571.164 57.7542 565.775C57.6199 566.575 57.452 567.589 57.2841 568.87C69.5401 558.519 86.6314 588.717 92.3061 567.589C75.7857 572.604 119.941 553.664 123.299 571.11C134.614 600.348 147.844 605.31 165.876 581.088C173.397 599.228 209.191 583.755 207.009 600.882C218.761 597.521 240.956 602.002 277.12 601.522C305.795 591.385 322.752 601.469 346.458 601.522C359.587 600.402 372.817 624.624 385.946 601.202C399.075 609.685 413.279 587.65 422.412 612.993C425.971 607.871 424.997 624.624 429.127 628.199C439.1 624.037 468.112 628.466 480.133 632.787C508.506 643.458 536.879 635.615 565.253 632.787C579.289 619.769 593.358 620.303 607.393 632.734C626.063 638.71 643.993 657.33 662.629 638.283C679.586 661.705 693.152 620.623 707.355 632.948C715.078 622.704 724.312 651.781 732.606 622.17C749.865 630.867 760.677 632.147 775.955 614.701C785.558 602.482 787.842 586.103 801.273 602.322C812.622 618.969 818.331 622.864 827.497 591.225C832.165 582.155 835.254 573.725 840.895 580.821C854.058 583.222 881.021 581.888 894.754 580.821C917.386 612.193 940.051 585.302 962.716 580.821C980.11 623.504 997.503 594.319 1014.9 580.874C1023.49 591.652 1037.16 570.31 1045.22 580.127C1054.69 607.124 1050.12 603.656 1058.28 590.318C1070.6 603.443 1082.52 591.332 1097.9 615.714C1111.33 625.158 1121.51 626.865 1135.78 622.33C1154.08 622.704 1168.92 622.917 1186.61 633.054C1201.42 657.224 1211.97 623.877 1222.91 644.205C1228.22 633.108 1232.31 641.324 1237.79 658.771C1253.94 695.638 1271.77 663.359 1293.29 685.661C1324.18 708.443 1353.56 661.919 1384.05 679.685C1396.68 666.934 1414.48 670.989 1425.59 677.338C1440.2 692.01 1451.55 654.129 1464.91 643.352C1479.01 662.132 1491.77 643.778 1507.59 631.987C1525.42 618.809 1529.45 598.908 1541.27 603.656C1555.4 568.656 1582.84 593.039 1602.55 595.386C1631.66 607.124 1657.21 563.214 1685.15 600.615C1701.47 601.736 1707.54 573.725 1722.22 608.138C1738.23 605.524 1751.7 621.263 1763.96 612.14C1784.71 602.536 1780.21 612.833 1790.48 606.964C1800.25 600.562 1814.46 582.155 1824.73 601.362C1843.9 585.676 1878.15 573.298 1876.64 578.687C1894.74 571.164 1904.28 595.76 1912.17 603.976C1912.1 615.768 1915.39 619.502 1920.9 620.089L1920.93 456.293L1920.97 303.434L1921 40.0262C1914.65 43.7076 1907.8 48.4028 1897.93 54.0583Z" fill="url(#paint0_linear)"/>
<defs>
<linearGradient id="paint0_linear" x1="961" y1="37.5458" x2="960.902" y2="615.906" gradientUnits="userSpaceOnUse">
<stop offset="0.00958928" stop-color="#8C8CA4"/>
<stop offset="0.00968928" stop-color="#9999A8"/>
<stop offset="0.3355" stop-color="white"/>
<stop offset="0.6337" stop-color="white"/>
<stop offset="1" stop-color="#8C8CA4"/>
</linearGradient>
</defs>
</svg>
