<svg width="262" height="262" viewBox="0 0 262 262" fill="none" xmlns="http://www.w3.org/2000/svg">
<g filter="url(#filter0_d)">
<rect x="21" y="16" width="220" height="220" rx="110" fill="#191F40"/>
</g>
<path fill-rule="evenodd" clip-rule="evenodd" d="M111.799 65H151.005C152.405 65 153.54 66.1347 153.54 67.5344C153.54 68.9341 152.405 70.0688 151.005 70.0688H111.799C110.399 70.0688 109.265 68.9341 109.265 67.5344C109.265 66.1347 110.399 65 111.799 65ZM105.265 67.5344C105.265 63.9255 108.19 61 111.799 61H151.005C154.614 61 157.54 63.9255 157.54 67.5344C157.54 71.1432 154.614 74.0688 151.005 74.0688H148.598V74.6296V81.1395V81.7984C153.757 83.4965 158.585 85.9233 162.961 88.957L162.355 88.3302L165.23 85.5491L166.401 84.416C167.989 82.8801 170.521 82.9221 172.057 84.5099L180.909 93.6608C182.445 95.2486 182.403 97.7809 180.815 99.3169L179.644 100.45L177.034 102.975C183.388 112.065 187.116 123.126 187.116 135.058C187.116 166.018 162.018 191.116 131.058 191.116C100.098 191.116 75 166.018 75 135.058C75 109.717 91.814 88.3039 114.894 81.3653V80.7903V74.6296V74.0688H111.799C108.19 74.0688 105.265 71.1432 105.265 67.5344ZM131.058 187.116C159.809 187.116 183.116 163.809 183.116 135.058C183.116 106.307 159.809 82.9998 131.058 82.9998C102.307 82.9998 79 106.307 79 135.058C79 163.809 102.307 187.116 131.058 187.116ZM173.487 134.598C173.487 158.22 154.337 177.37 130.714 177.37C107.092 177.37 87.9418 158.22 87.9418 134.598C87.9418 110.975 107.092 91.8254 130.714 91.8254C154.337 91.8254 173.487 110.975 173.487 134.598ZM177.487 134.598C177.487 160.43 156.546 181.37 130.714 181.37C104.883 181.37 83.9418 160.43 83.9418 134.598C83.9418 108.766 104.883 87.8254 130.714 87.8254C156.546 87.8254 177.487 108.766 177.487 134.598ZM139.407 134.604C139.407 139.405 135.515 143.297 130.714 143.297C125.913 143.297 122.021 139.405 122.021 134.604C122.021 129.803 125.913 125.911 130.714 125.911C131.443 125.911 132.147 126 132.818 126.166C133.75 126.398 134.513 126.146 134.84 126.016C135.219 125.866 135.524 125.673 135.725 125.532C136.135 125.246 136.527 124.888 136.862 124.56C137.551 123.883 138.378 122.953 139.255 121.93C140.068 120.979 140.979 119.885 141.931 118.741L141.932 118.74L141.934 118.738L141.935 118.736L141.936 118.734L141.937 118.734L142.194 118.425C143.247 117.159 144.354 115.832 145.474 114.527C146.797 112.985 148.103 111.516 149.324 110.245C148.424 111.77 147.363 113.433 146.242 115.131C145.286 116.581 144.306 118.026 143.371 119.401L143.155 119.72L143.153 119.722C142.303 120.973 141.491 122.168 140.792 123.226C140.042 124.36 139.373 125.411 138.908 126.251C138.683 126.658 138.448 127.119 138.282 127.569C138.201 127.788 138.094 128.117 138.042 128.501C138 128.805 137.917 129.635 138.386 130.511C139.037 131.728 139.407 133.118 139.407 134.604ZM153.937 106.383C153.94 106.382 153.941 106.381 153.941 106.381C153.942 106.38 153.929 106.383 153.9 106.393C153.919 106.389 153.931 106.385 153.937 106.383ZM151.893 104.738C151.892 104.692 151.895 104.666 151.897 104.664C151.899 104.663 151.899 104.685 151.893 104.738ZM142.407 134.604C142.407 141.062 137.172 146.297 130.714 146.297C124.256 146.297 119.021 141.062 119.021 134.604C119.021 128.146 124.256 122.911 130.714 122.911C131.689 122.911 132.636 123.03 133.541 123.255C134.147 123.405 136.591 120.468 139.634 116.811L139.634 116.811C144.93 110.446 152.042 101.899 154.444 103.647C156.627 105.235 150.336 114.491 145.639 121.402C142.934 125.382 140.757 128.584 141.032 129.096C141.91 130.737 142.407 132.613 142.407 134.604ZM118.894 79.6307C122.175 78.8508 126.759 78.1428 132.223 78.325C137.356 78.4961 141.554 79.2282 144.598 79.972V74.6296H118.894V79.6307ZM169.182 87.291L178.034 96.4419L176.863 97.575L168.011 88.424L169.182 87.291Z" fill="url(#paint0_linear)"/>
<g style="mix-blend-mode:screen">
<path d="M131 95C160.823 95 185 82.6878 185 67.5C185 52.3122 160.823 40 131 40C101.177 40 77 52.3122 77 67.5C77 82.6878 101.177 95 131 95Z" fill="url(#paint1_radial)"/>
</g>
<defs>
<filter id="filter0_d" x="0" y="0" width="262" height="262" filterUnits="userSpaceOnUse" color-interpolation-filters="sRGB">
<feFlood flood-opacity="0" result="BackgroundImageFix"/>
<feColorMatrix in="SourceAlpha" type="matrix" values="0 0 0 0 0 0 0 0 0 0 0 0 0 0 0 0 0 0 127 0" result="hardAlpha"/>
<feOffset dy="5"/>
<feGaussianBlur stdDeviation="10.5"/>
<feColorMatrix type="matrix" values="0 0 0 0 0 0 0 0 0 0 0 0 0 0 0 0 0 0 0.06 0"/>
<feBlend mode="normal" in2="BackgroundImageFix" result="effect1_dropShadow"/>
<feBlend mode="normal" in="SourceGraphic" in2="effect1_dropShadow" result="shape"/>
</filter>
<linearGradient id="paint0_linear" x1="95.5" y1="70.5085" x2="164.59" y2="183.054" gradientUnits="userSpaceOnUse">
<stop stop-color="#D3FAFF"/>
<stop offset="0.369792" stop-color="#95DEFF"/>
<stop offset="1" stop-color="#006DAA"/>
</linearGradient>
<radialGradient id="paint1_radial" cx="0" cy="0" r="1" gradientUnits="userSpaceOnUse" gradientTransform="translate(130.999 67.4983) scale(53.9995 27.5017)">
<stop stop-color="#0064BF"/>
<stop offset="0.18" stop-color="#0055A2"/>
<stop offset="0.5713" stop-color="#002E58"/>
<stop offset="1"/>
</radialGradient>
</defs>
</svg>
