<svg width="262" height="262" viewBox="0 0 262 262" fill="none" xmlns="http://www.w3.org/2000/svg">
<g filter="url(#filter0_d)">
<rect x="21" y="16" width="220" height="220" rx="110" fill="#191F40"/>
</g>
<g style="mix-blend-mode:screen">
<path d="M131.488 103.056C159.925 103.056 182.977 89.3883 182.977 72.5281C182.977 55.6679 159.925 42 131.488 42C103.052 42 80 55.6679 80 72.5281C80 89.3883 103.052 103.056 131.488 103.056Z" fill="url(#paint0_radial)"/>
</g>
<path d="M129.683 193.999C129.096 193.999 128.501 193.991 127.913 193.976L127.937 193.08C129.124 193.111 130.326 193.11 131.507 193.078L131.532 193.974C130.92 193.991 130.297 193.999 129.683 193.999ZM124.3 193.782C123.101 193.685 121.891 193.553 120.703 193.391L120.824 192.502C121.996 192.663 123.19 192.793 124.372 192.888L124.3 193.782ZM135.145 193.775L135.072 192.882C136.254 192.784 137.447 192.653 138.619 192.491L138.742 193.38C137.554 193.543 136.344 193.677 135.145 193.775ZM117.133 192.801C115.953 192.573 114.764 192.308 113.6 192.015L113.819 191.146C114.967 191.435 116.139 191.695 117.303 191.92L117.133 192.801ZM142.311 192.786L142.14 191.906C143.302 191.68 144.474 191.417 145.622 191.127L145.843 191.996C144.678 192.291 143.49 192.557 142.311 192.786ZM110.116 191.035C108.966 190.677 107.812 190.281 106.685 189.86L106.999 189.021C108.111 189.436 109.25 189.826 110.383 190.179L110.116 191.035ZM149.325 191.012L149.057 190.156C150.188 189.802 151.323 189.412 152.433 188.996L152.747 189.835C151.622 190.258 150.471 190.653 149.325 191.012ZM103.326 188.497C102.225 188.014 101.123 187.494 100.049 186.95L100.454 186.15C101.513 186.686 102.601 187.2 103.686 187.676L103.326 188.497ZM156.092 188.474L155.731 187.653C156.814 187.177 157.898 186.664 158.953 186.129L159.359 186.929C158.289 187.472 157.19 187.991 156.092 188.474ZM96.8626 185.224C95.822 184.622 94.7841 183.984 93.7776 183.326L94.2682 182.576C95.2607 183.225 96.2845 183.855 97.3111 184.448L96.8626 185.224ZM162.535 185.205L162.086 184.429C163.111 183.837 164.132 183.207 165.122 182.559L165.613 183.309C164.609 183.967 163.574 184.605 162.535 185.205ZM90.8027 181.261C89.8344 180.549 88.8732 179.8 87.946 179.036L88.5165 178.344C89.4307 179.098 90.3785 179.836 91.3343 180.539L90.8027 181.261ZM168.583 181.246L168.052 180.524C169.005 179.822 169.952 179.084 170.866 178.33L171.436 179.022C170.51 179.787 169.549 180.535 168.583 181.246ZM85.2167 176.659C84.3337 175.846 83.4604 174.997 82.6217 174.136L83.264 173.511C84.0914 174.36 84.9522 175.197 85.8238 175.999L85.2167 176.659ZM174.164 176.645L173.556 175.986C174.428 175.182 175.289 174.345 176.115 173.497L176.758 174.122C175.921 174.983 175.048 175.832 174.164 176.645ZM80.1693 171.476C79.3797 170.571 78.6046 169.632 77.8668 168.686L78.5739 168.134C79.3019 169.067 80.0662 169.993 80.845 170.886L80.1693 171.476ZM179.21 171.46L178.535 170.871C179.313 169.977 180.078 169.051 180.807 168.116L181.514 168.667C180.775 169.615 180 170.555 179.21 171.46ZM75.7209 165.775C75.036 164.79 74.369 163.772 73.7386 162.751L74.5017 162.28C75.1235 163.288 75.7809 164.291 76.4566 165.263L75.7209 165.775ZM183.661 165.752L182.924 165.24C183.601 164.266 184.26 163.26 184.881 162.251L185.645 162.722C185.015 163.744 184.347 164.764 183.661 165.752ZM71.9268 159.622C71.3541 158.568 70.8031 157.484 70.2904 156.4L71.1005 156.017C71.6067 157.085 72.1497 158.154 72.7147 159.194L71.9268 159.622ZM187.459 159.586L186.671 159.159C187.236 158.115 187.78 157.043 188.287 155.971L189.098 156.354C188.584 157.441 188.033 158.528 187.459 159.586ZM68.8342 153.095C68.3808 151.983 67.9529 150.843 67.5616 149.707L68.4095 149.415C68.7953 150.535 69.2174 151.659 69.6643 152.756L68.8342 153.095ZM190.556 153.035L189.725 152.697C190.172 151.597 190.595 150.47 190.979 149.348L191.827 149.639C191.437 150.776 191.01 151.919 190.556 153.035ZM66.4794 146.254C66.1524 145.098 65.8528 143.918 65.59 142.746L66.4649 142.55C66.7239 143.706 67.0192 144.87 67.3419 146.01L66.4794 146.254ZM192.906 146.185L192.043 145.941C192.365 144.801 192.658 143.637 192.916 142.481L193.792 142.676C193.53 143.848 193.232 145.029 192.906 146.185ZM64.8965 139.194C64.6995 138.011 64.5322 136.805 64.4005 135.61L65.2915 135.512C65.4216 136.69 65.5862 137.88 65.7811 139.047L64.8965 139.194ZM194.481 139.124L193.596 138.977C193.79 137.809 193.953 136.62 194.082 135.441L194.974 135.539C194.843 136.734 194.677 137.939 194.481 139.124ZM64.102 132.004C64.0356 130.807 64.0016 129.589 64 128.386L64.8965 128.385C64.8975 129.572 64.9315 130.773 64.9968 131.955L64.102 132.004ZM195.268 131.932L194.373 131.884C194.437 130.703 194.47 129.503 194.47 128.316V128.178L195.366 128.176V128.316C195.366 129.519 195.333 130.736 195.268 131.932ZM64.9893 124.817L64.0939 124.77C64.1576 123.569 64.2558 122.356 64.3848 121.163L65.2764 121.26C65.149 122.436 65.0524 123.633 64.9893 124.817ZM194.365 124.61C194.298 123.426 194.198 122.229 194.066 121.053L194.958 120.954C195.091 122.146 195.192 123.359 195.26 124.559L194.365 124.61ZM65.7584 117.723L64.8738 117.578C65.0686 116.392 65.2996 115.196 65.5598 114.025L66.4352 114.219C66.1783 115.375 65.9505 116.554 65.7584 117.723ZM193.574 117.518C193.378 116.349 193.146 115.171 192.886 114.016L193.761 113.819C194.025 114.99 194.259 116.185 194.458 117.37L193.574 117.518ZM67.3041 110.757L66.4411 110.515C66.7655 109.359 67.1276 108.196 67.5162 107.059L68.3647 107.349C67.9809 108.471 67.6242 109.617 67.3041 110.757ZM192.005 110.558C191.682 109.418 191.321 108.273 190.934 107.153L191.781 106.86C192.174 107.996 192.539 109.157 192.868 110.312L192.005 110.558ZM69.6146 103.999L68.7835 103.662C69.2347 102.548 69.7242 101.431 70.2375 100.342L71.0487 100.724C70.5424 101.798 70.0599 102.9 69.6146 103.999ZM189.675 103.813C189.228 102.719 188.744 101.622 188.237 100.553L189.047 100.169C189.561 101.252 190.052 102.364 190.505 103.473L189.675 103.813ZM72.6619 97.5343L71.8733 97.1074C72.4454 96.0501 73.0542 94.9944 73.6846 93.9701L74.4483 94.4396C73.8271 95.4505 73.2259 96.4921 72.6619 97.5343ZM186.618 97.3773C186.053 96.3389 185.451 95.3015 184.828 94.2944L185.59 93.8227C186.222 94.8444 186.833 95.8958 187.406 96.9487L186.618 97.3773ZM76.4021 91.4491L75.6648 90.938C76.3492 89.9508 77.0702 88.9691 77.8091 88.0197L78.5167 88.5702C77.7886 89.5072 77.0772 90.4754 76.4021 91.4491ZM182.87 91.3136C182.193 90.3437 181.48 89.3782 180.75 88.4439L181.457 87.8918C182.197 88.8385 182.92 89.8175 183.605 90.8009L182.87 91.3136ZM80.7861 85.8134L80.1094 85.2251C80.8979 84.3189 81.722 83.4224 82.5591 82.5605L83.2024 83.185C82.3767 84.035 81.5639 84.9191 80.7861 85.8134ZM178.476 85.6941C177.696 84.8025 176.881 83.9201 176.054 83.0722L176.696 82.4461C177.535 83.3059 178.361 84.1996 179.151 85.1042L178.476 85.6941ZM85.7585 80.6931L85.1503 80.0341C86.0327 79.2197 86.9497 78.4188 87.8753 77.6545L88.4463 78.3459C87.5336 79.0999 86.6291 79.8895 85.7585 80.6931ZM173.492 80.5863C172.619 79.7848 171.712 78.9968 170.797 78.2439L171.366 77.5515C172.294 78.3146 173.214 79.1134 174.098 79.9256L173.492 80.5863ZM91.2587 76.1493L90.726 75.4277C91.6927 74.7147 92.6911 74.0196 93.6939 73.3611L94.1861 74.1108C93.1968 74.7601 92.2119 75.446 91.2587 76.1493ZM167.976 76.0527C167.021 75.3516 166.033 74.6672 165.04 74.019L165.53 73.2683C166.537 73.9251 167.539 74.6192 168.507 75.33L167.976 76.0527ZM97.2199 72.2374L96.7697 71.4619C97.8076 70.8596 98.8757 70.2788 99.9449 69.7348L100.351 70.5341C99.2972 71.0706 98.2437 71.6438 97.2199 72.2374ZM161.995 72.15C160.967 71.5574 159.909 70.9858 158.851 70.4515L159.255 69.6511C160.327 70.193 161.4 70.7721 162.443 71.3734L161.995 72.15ZM103.571 69.0073L103.21 68.1869C104.306 67.7033 105.431 67.244 106.554 66.822L106.869 67.6612C105.762 68.0773 104.652 68.5302 103.571 69.0073ZM155.616 68.929C154.529 68.4535 153.414 68.0023 152.302 67.5878L152.615 66.7475C153.743 67.1679 154.874 67.6251 155.976 68.1076L155.616 68.929ZM110.243 66.4971L109.974 65.6416C111.121 65.2816 112.292 64.9492 113.456 64.6534L113.676 65.5223C112.529 65.8138 111.374 66.1419 110.243 66.4971ZM148.917 66.4323C147.785 66.0809 146.629 65.7571 145.48 65.4689L145.698 64.5989C146.863 64.8909 148.035 65.2196 149.182 65.5758L148.917 66.4323ZM117.158 64.7392L116.986 63.8589C118.165 63.6279 119.365 63.4272 120.555 63.262L120.679 64.1504C119.505 64.3139 118.321 64.512 117.158 64.7392ZM141.995 64.6982C140.832 64.4742 139.647 64.2805 138.473 64.1212L138.593 63.2323C139.783 63.3937 140.985 63.5907 142.164 63.8174L141.995 64.6982ZM124.226 63.7564L124.152 62.8626C125.347 62.7628 126.563 62.6948 127.764 62.6602L127.79 63.5567C126.605 63.5907 125.405 63.6582 124.226 63.7564ZM134.925 63.7386C133.747 63.6441 132.548 63.581 131.36 63.5508L131.383 62.6543C132.586 62.6851 133.802 62.7487 134.996 62.8443L134.925 63.7386Z" fill="url(#paint1_linear)"/>
<mask id="path-4-inside-1" fill="white">
<path d="M184.442 128.593C184.442 128.827 184.44 129.062 184.438 129.295C184.429 129.997 184.407 130.696 184.371 131.39C183.256 153.401 169.051 171.959 149.386 179.435C149.179 179.514 148.971 179.592 148.763 179.668C148.139 179.897 147.508 180.114 146.873 180.321C146.661 180.389 146.449 180.457 146.236 180.523C144.96 180.92 143.662 181.271 142.347 181.575C141.909 181.676 141.468 181.772 141.026 181.863C139.92 182.09 138.801 182.282 137.671 182.44C137.445 182.472 137.22 182.502 136.992 182.531C136.538 182.589 136.084 182.641 135.626 182.687C135.398 182.71 135.169 182.733 134.94 182.753C134.481 182.794 134.021 182.829 133.559 182.858C132.405 182.931 131.241 182.968 130.067 182.968C128.894 182.968 127.729 182.931 126.575 182.858C126.113 182.829 125.653 182.794 125.194 182.753C124.965 182.733 124.737 182.711 124.508 182.687C124.051 182.641 123.596 182.589 123.142 182.531C122.914 182.502 122.688 182.472 122.462 182.44C121.333 182.282 120.214 182.09 119.108 181.863C118.665 181.772 118.225 181.676 117.787 181.575C116.472 181.271 115.174 180.92 113.897 180.523C113.684 180.457 113.472 180.389 113.261 180.321C112.625 180.114 111.995 179.897 111.37 179.668C111.163 179.592 110.955 179.514 110.748 179.435C91.0825 171.959 76.8782 153.402 75.7621 131.39C75.733 130.812 75.713 130.231 75.7017 129.649C75.6995 129.531 75.6979 129.413 75.6963 129.294C75.6952 129.209 75.6941 129.124 75.693 129.038C75.6919 128.889 75.6914 128.74 75.6914 128.592C75.6914 127.946 75.7027 127.303 75.7254 126.662C75.7324 126.461 75.7405 126.26 75.7497 126.058C75.7535 125.97 75.7578 125.882 75.7621 125.794C75.7853 125.33 75.815 124.869 75.8495 124.408C75.8674 124.179 75.8862 123.949 75.9068 123.719C75.9478 123.261 75.9936 122.803 76.0455 122.348C76.0978 121.893 76.1556 121.439 76.2187 120.987C76.3132 120.31 76.4206 119.636 76.5404 118.967C77.5988 113.042 79.6178 107.45 82.4292 102.357C82.5221 102.187 82.6165 102.019 82.712 101.851C83.8233 99.8866 85.0533 97.9986 86.3929 96.1965C86.4685 96.0945 86.5446 95.9936 86.6201 95.8921C87.8858 94.2136 89.2458 92.6107 90.6928 91.0914C90.7025 91.0817 90.7123 91.0709 90.7214 91.0612C92.6682 89.0216 94.7715 87.1331 97.0118 85.4152C98.0492 84.6202 99.1151 83.8614 100.21 83.1414C101.304 82.4214 102.425 81.7398 103.572 81.0986C103.954 80.8843 104.34 80.6754 104.728 80.4709C105.115 80.2658 105.506 80.0656 105.9 79.8702C106.16 79.7407 106.422 79.6144 106.684 79.4897C107.154 79.2652 107.629 79.0471 108.107 78.8361C108.23 78.7816 108.353 78.7276 108.476 78.6742C108.819 78.5252 109.165 78.379 109.512 78.237C109.922 78.0697 110.334 77.9073 110.748 77.7502C110.955 77.6709 111.162 77.5937 111.37 77.5176C111.632 77.4215 111.895 77.3287 112.158 77.2369C112.524 77.1096 112.891 76.9849 113.26 76.8651C113.472 76.7965 113.684 76.7285 113.896 76.6627C114.322 76.5304 114.75 76.4031 115.18 76.2811C116.255 75.9762 117.345 75.7025 118.446 75.4629C118.886 75.3668 119.329 75.2762 119.773 75.1909C120.217 75.1056 120.663 75.0263 121.112 74.9518C121.784 74.8401 122.46 74.7413 123.141 74.6549C123.594 74.5972 124.05 74.5448 124.507 74.4984C124.735 74.4758 124.964 74.4542 125.194 74.4337C125.652 74.3926 126.113 74.3576 126.575 74.3284C127.729 74.255 128.893 74.2178 130.067 74.2178C131.24 74.2178 132.404 74.255 133.559 74.3284C134.021 74.3576 134.481 74.3932 134.939 74.4337C135.169 74.4542 135.398 74.4752 135.626 74.4984C136.083 74.5454 136.538 74.5977 136.992 74.6549C137.672 74.7413 138.349 74.8401 139.021 74.9518C139.469 75.0257 139.915 75.1056 140.36 75.1909C140.804 75.2762 141.247 75.3668 141.687 75.4629C142.789 75.7025 143.878 75.9762 144.953 76.2811C145.383 76.4031 145.811 76.5304 146.236 76.6627C146.449 76.7291 146.661 76.7965 146.873 76.8651C147.242 76.9849 147.609 77.1096 147.975 77.2369C148.238 77.3287 148.501 77.4215 148.763 77.5176C148.971 77.5937 149.179 77.6709 149.386 77.7502C149.8 77.9073 150.212 78.0697 150.62 78.237C150.968 78.379 151.314 78.5252 151.658 78.6742C151.781 78.7276 151.904 78.7811 152.026 78.8361C152.504 79.0471 152.978 79.2652 153.449 79.4897C153.712 79.6144 153.973 79.7417 154.233 79.8702C154.627 80.0656 155.017 80.2658 155.405 80.4709C155.793 80.6754 156.179 80.8843 156.561 81.0986C157.708 81.7398 158.83 82.4209 159.924 83.1414C161.018 83.8614 162.084 84.6208 163.121 85.4152C165.362 87.1331 167.465 89.0216 169.412 91.0612C169.421 91.0709 169.431 91.0817 169.44 91.0914C170.888 92.6107 172.247 94.2142 173.513 95.8921C173.589 95.9936 173.665 96.0945 173.741 96.1965C175.08 97.9986 176.309 99.8866 177.421 101.851C177.516 102.019 177.61 102.187 177.704 102.357C180.515 107.451 182.534 113.043 183.593 118.967C183.712 119.636 183.82 120.31 183.915 120.988C183.978 121.439 184.035 121.893 184.088 122.348C184.14 122.803 184.186 123.26 184.227 123.719C184.247 123.949 184.266 124.179 184.283 124.408C184.319 124.869 184.348 125.331 184.371 125.794C184.419 126.722 184.442 127.654 184.442 128.593Z"/>
</mask>
<path d="M184.442 128.593C184.442 128.827 184.44 129.062 184.438 129.295C184.429 129.997 184.407 130.696 184.371 131.39C183.256 153.401 169.051 171.959 149.386 179.435C149.179 179.514 148.971 179.592 148.763 179.668C148.139 179.897 147.508 180.114 146.873 180.321C146.661 180.389 146.449 180.457 146.236 180.523C144.96 180.92 143.662 181.271 142.347 181.575C141.909 181.676 141.468 181.772 141.026 181.863C139.92 182.09 138.801 182.282 137.671 182.44C137.445 182.472 137.22 182.502 136.992 182.531C136.538 182.589 136.084 182.641 135.626 182.687C135.398 182.71 135.169 182.733 134.94 182.753C134.481 182.794 134.021 182.829 133.559 182.858C132.405 182.931 131.241 182.968 130.067 182.968C128.894 182.968 127.729 182.931 126.575 182.858C126.113 182.829 125.653 182.794 125.194 182.753C124.965 182.733 124.737 182.711 124.508 182.687C124.051 182.641 123.596 182.589 123.142 182.531C122.914 182.502 122.688 182.472 122.462 182.44C121.333 182.282 120.214 182.09 119.108 181.863C118.665 181.772 118.225 181.676 117.787 181.575C116.472 181.271 115.174 180.92 113.897 180.523C113.684 180.457 113.472 180.389 113.261 180.321C112.625 180.114 111.995 179.897 111.37 179.668C111.163 179.592 110.955 179.514 110.748 179.435C91.0825 171.959 76.8782 153.402 75.7621 131.39C75.733 130.812 75.713 130.231 75.7017 129.649C75.6995 129.531 75.6979 129.413 75.6963 129.294C75.6952 129.209 75.6941 129.124 75.693 129.038C75.6919 128.889 75.6914 128.74 75.6914 128.592C75.6914 127.946 75.7027 127.303 75.7254 126.662C75.7324 126.461 75.7405 126.26 75.7497 126.058C75.7535 125.97 75.7578 125.882 75.7621 125.794C75.7853 125.33 75.815 124.869 75.8495 124.408C75.8674 124.179 75.8862 123.949 75.9068 123.719C75.9478 123.261 75.9936 122.803 76.0455 122.348C76.0978 121.893 76.1556 121.439 76.2187 120.987C76.3132 120.31 76.4206 119.636 76.5404 118.967C77.5988 113.042 79.6178 107.45 82.4292 102.357C82.5221 102.187 82.6165 102.019 82.712 101.851C83.8233 99.8866 85.0533 97.9986 86.3929 96.1965C86.4685 96.0945 86.5446 95.9936 86.6201 95.8921C87.8858 94.2136 89.2458 92.6107 90.6928 91.0914C90.7025 91.0817 90.7123 91.0709 90.7214 91.0612C92.6682 89.0216 94.7715 87.1331 97.0118 85.4152C98.0492 84.6202 99.1151 83.8614 100.21 83.1414C101.304 82.4214 102.425 81.7398 103.572 81.0986C103.954 80.8843 104.34 80.6754 104.728 80.4709C105.115 80.2658 105.506 80.0656 105.9 79.8702C106.16 79.7407 106.422 79.6144 106.684 79.4897C107.154 79.2652 107.629 79.0471 108.107 78.8361C108.23 78.7816 108.353 78.7276 108.476 78.6742C108.819 78.5252 109.165 78.379 109.512 78.237C109.922 78.0697 110.334 77.9073 110.748 77.7502C110.955 77.6709 111.162 77.5937 111.37 77.5176C111.632 77.4215 111.895 77.3287 112.158 77.2369C112.524 77.1096 112.891 76.9849 113.26 76.8651C113.472 76.7965 113.684 76.7285 113.896 76.6627C114.322 76.5304 114.75 76.4031 115.18 76.2811C116.255 75.9762 117.345 75.7025 118.446 75.4629C118.886 75.3668 119.329 75.2762 119.773 75.1909C120.217 75.1056 120.663 75.0263 121.112 74.9518C121.784 74.8401 122.46 74.7413 123.141 74.6549C123.594 74.5972 124.05 74.5448 124.507 74.4984C124.735 74.4758 124.964 74.4542 125.194 74.4337C125.652 74.3926 126.113 74.3576 126.575 74.3284C127.729 74.255 128.893 74.2178 130.067 74.2178C131.24 74.2178 132.404 74.255 133.559 74.3284C134.021 74.3576 134.481 74.3932 134.939 74.4337C135.169 74.4542 135.398 74.4752 135.626 74.4984C136.083 74.5454 136.538 74.5977 136.992 74.6549C137.672 74.7413 138.349 74.8401 139.021 74.9518C139.469 75.0257 139.915 75.1056 140.36 75.1909C140.804 75.2762 141.247 75.3668 141.687 75.4629C142.789 75.7025 143.878 75.9762 144.953 76.2811C145.383 76.4031 145.811 76.5304 146.236 76.6627C146.449 76.7291 146.661 76.7965 146.873 76.8651C147.242 76.9849 147.609 77.1096 147.975 77.2369C148.238 77.3287 148.501 77.4215 148.763 77.5176C148.971 77.5937 149.179 77.6709 149.386 77.7502C149.8 77.9073 150.212 78.0697 150.62 78.237C150.968 78.379 151.314 78.5252 151.658 78.6742C151.781 78.7276 151.904 78.7811 152.026 78.8361C152.504 79.0471 152.978 79.2652 153.449 79.4897C153.712 79.6144 153.973 79.7417 154.233 79.8702C154.627 80.0656 155.017 80.2658 155.405 80.4709C155.793 80.6754 156.179 80.8843 156.561 81.0986C157.708 81.7398 158.83 82.4209 159.924 83.1414C161.018 83.8614 162.084 84.6208 163.121 85.4152C165.362 87.1331 167.465 89.0216 169.412 91.0612C169.421 91.0709 169.431 91.0817 169.44 91.0914C170.888 92.6107 172.247 94.2142 173.513 95.8921C173.589 95.9936 173.665 96.0945 173.741 96.1965C175.08 97.9986 176.309 99.8866 177.421 101.851C177.516 102.019 177.61 102.187 177.704 102.357C180.515 107.451 182.534 113.043 183.593 118.967C183.712 119.636 183.82 120.31 183.915 120.988C183.978 121.439 184.035 121.893 184.088 122.348C184.14 122.803 184.186 123.26 184.227 123.719C184.247 123.949 184.266 124.179 184.283 124.408C184.319 124.869 184.348 125.331 184.371 125.794C184.419 126.722 184.442 127.654 184.442 128.593Z" stroke="url(#paint2_linear)" stroke-width="8" mask="url(#path-4-inside-1)"/>
<path fill-rule="evenodd" clip-rule="evenodd" d="M189.083 69.502L189.068 59L173.038 75.0266L173.295 83.0636L154.215 102.139C147.847 96.3231 139.371 92.7754 130.067 92.7754C110.286 92.7754 94.2498 108.811 94.2498 128.593C94.2498 148.374 110.286 164.41 130.067 164.41C149.848 164.41 165.884 148.374 165.884 128.593C165.884 119.198 162.267 110.647 156.349 104.259L175.401 85.2117L183.498 85.4114L199.474 69.4394L189.083 69.502ZM151.383 104.971C145.741 99.8769 138.266 96.7754 130.067 96.7754C112.495 96.7754 98.2498 111.02 98.2498 128.593C98.2498 146.165 112.495 160.41 130.067 160.41C147.639 160.41 161.884 146.165 161.884 128.593C161.884 120.302 158.713 112.752 153.518 107.089L144.522 116.083C151.061 123.528 150.777 134.874 143.67 141.98C136.268 149.382 124.267 149.382 116.864 141.98C109.462 134.578 109.462 122.577 116.864 115.174C123.846 108.193 134.92 107.796 142.366 113.985L151.383 104.971ZM140.234 116.117C133.969 111.094 124.795 111.487 118.986 117.296C112.755 123.526 112.755 133.628 118.986 139.859C125.216 146.09 135.318 146.09 141.549 139.859C147.484 133.924 147.765 124.478 142.395 118.209L136.324 124.278C137.209 125.482 137.731 126.968 137.731 128.577C137.731 132.591 134.476 135.846 130.462 135.846C126.447 135.846 123.192 132.591 123.192 128.577C123.192 124.562 126.447 121.308 130.462 121.308C131.779 121.308 133.014 121.658 134.079 122.27L140.234 116.117Z" fill="url(#paint3_linear)"/>
<defs>
<filter id="filter0_d" x="0" y="0" width="262" height="262" filterUnits="userSpaceOnUse" color-interpolation-filters="sRGB">
<feFlood flood-opacity="0" result="BackgroundImageFix"/>
<feColorMatrix in="SourceAlpha" type="matrix" values="0 0 0 0 0 0 0 0 0 0 0 0 0 0 0 0 0 0 127 0" result="hardAlpha"/>
<feOffset dy="5"/>
<feGaussianBlur stdDeviation="10.5"/>
<feColorMatrix type="matrix" values="0 0 0 0 0 0 0 0 0 0 0 0 0 0 0 0 0 0 0.06 0"/>
<feBlend mode="normal" in2="BackgroundImageFix" result="effect1_dropShadow"/>
<feBlend mode="normal" in="SourceGraphic" in2="effect1_dropShadow" result="shape"/>
</filter>
<radialGradient id="paint0_radial" cx="0" cy="0" r="1" gradientUnits="userSpaceOnUse" gradientTransform="translate(131.487 72.5262) scale(51.4879 30.53)">
<stop stop-color="#0064BF"/>
<stop offset="0.18" stop-color="#0055A2"/>
<stop offset="0.5713" stop-color="#002E58"/>
<stop offset="1"/>
</radialGradient>
<linearGradient id="paint1_linear" x1="88.0197" y1="72.2526" x2="152.665" y2="194.485" gradientUnits="userSpaceOnUse">
<stop stop-color="#D3FAFF"/>
<stop offset="0.369792" stop-color="#95DEFF"/>
<stop offset="1" stop-color="#006DAA"/>
</linearGradient>
<linearGradient id="paint2_linear" x1="95.576" y1="82.1649" x2="149.106" y2="183.363" gradientUnits="userSpaceOnUse">
<stop stop-color="#D3FAFF"/>
<stop offset="0.369792" stop-color="#95DEFF"/>
<stop offset="1" stop-color="#006DAA"/>
</linearGradient>
<linearGradient id="paint3_linear" x1="142" y1="64.1399" x2="176.62" y2="129.591" gradientUnits="userSpaceOnUse">
<stop stop-color="#D3FAFF"/>
<stop offset="0.369792" stop-color="#95DEFF"/>
<stop offset="1" stop-color="#006DAA"/>
</linearGradient>
</defs>
</svg>
