<svg width="262" height="262" viewBox="0 0 262 262" fill="none" xmlns="http://www.w3.org/2000/svg">
<g filter="url(#filter0_d)">
<rect x="21" y="16" width="220" height="220" rx="110" fill="#191F40"/>
</g>
<path fill-rule="evenodd" clip-rule="evenodd" d="M177.83 116.513L178.372 119.206L181.08 119.667L192 121.527V130.473L181.08 132.333L178.372 132.794L177.83 135.487C176.594 141.629 174.17 147.343 170.813 152.394L169.294 154.681L170.882 156.921L177.297 165.971L170.97 172.297L161.921 165.881L159.681 164.293L157.394 165.813C152.341 169.17 146.629 171.594 140.487 172.831L137.794 173.373L137.333 176.08L135.473 187H126.526L124.667 176.08L124.206 173.373L121.513 172.831C115.371 171.594 109.658 169.17 104.606 165.813L102.319 164.293L100.079 165.881L91.0291 172.297L84.7029 165.971L91.1181 156.921L92.706 154.681L91.1864 152.394C87.8298 147.343 85.4059 141.629 84.1688 135.487L83.6265 132.794L80.9191 132.333L70 130.473V121.527L80.9193 119.667L83.6265 119.206L84.1687 116.514C85.4058 110.371 87.8298 104.659 91.1866 99.606L92.7059 97.319L91.118 95.0791L84.7029 86.0303L91.0291 79.7038L100.078 86.1188L102.318 87.7067L104.605 86.1873C109.658 82.8303 115.371 80.4064 121.513 79.1696L124.206 78.6274L124.667 75.9198L126.526 65H135.473L137.333 75.9199L137.794 78.6275L140.487 79.1696C146.629 80.4064 152.341 82.8302 157.394 86.1873L159.681 87.7068L161.921 86.1188L170.97 79.7038L177.296 86.0304L170.882 95.0792L169.294 97.3191L170.813 99.606C174.17 104.659 176.594 110.371 177.83 116.513ZM196 133.85V118.151L181.752 115.724C180.41 109.058 177.78 102.864 174.145 97.3925L182.512 85.5894L171.411 74.4879L159.608 82.8556C154.136 79.2202 147.942 76.5905 141.276 75.2483L138.849 61H123.15L120.724 75.2483C114.058 76.5905 107.863 79.2202 102.391 82.8556L90.588 74.4879L79.4871 85.5894L87.8548 97.3925C84.2197 102.864 81.59 109.058 80.2475 115.724L66 118.151V133.85L80.2475 136.276C81.59 142.942 84.2197 149.137 87.8548 154.608L79.4871 166.412L90.588 177.512L102.392 169.145C107.863 172.78 114.058 175.41 120.724 176.752L123.15 191H138.849L141.276 176.752C147.942 175.41 154.136 172.78 159.608 169.145L171.411 177.512L182.512 166.412L174.145 154.608C177.78 149.137 180.41 142.942 181.752 136.276L196 133.85ZM170 126C170 147.539 152.539 165 131 165C109.461 165 92 147.539 92 126C92 104.461 109.461 87 131 87C152.539 87 170 104.461 170 126ZM174 126C174 149.748 154.748 169 131 169C107.252 169 88 149.748 88 126C88 102.252 107.252 83 131 83C154.748 83 174 102.252 174 126ZM131 137C137.075 137 142 132.075 142 126C142 119.925 137.075 115 131 115C124.925 115 120 119.925 120 126C120 132.075 124.925 137 131 137ZM131 141C139.284 141 146 134.284 146 126C146 117.716 139.284 111 131 111C122.716 111 116 117.716 116 126C116 134.284 122.716 141 131 141ZM152 126C152 137.598 142.598 147 131 147C119.402 147 110 137.598 110 126C110 114.402 119.402 105 131 105C142.598 105 152 114.402 152 126ZM156 126C156 139.807 144.807 151 131 151C117.193 151 106 139.807 106 126C106 112.193 117.193 101 131 101C144.807 101 156 112.193 156 126Z" fill="black"/>
<path fill-rule="evenodd" clip-rule="evenodd" d="M177.83 116.513L178.372 119.206L181.08 119.667L192 121.527V130.473L181.08 132.333L178.372 132.794L177.83 135.487C176.594 141.629 174.17 147.343 170.813 152.394L169.294 154.681L170.882 156.921L177.297 165.971L170.97 172.297L161.921 165.881L159.681 164.293L157.394 165.813C152.341 169.17 146.629 171.594 140.487 172.831L137.794 173.373L137.333 176.08L135.473 187H126.526L124.667 176.08L124.206 173.373L121.513 172.831C115.371 171.594 109.658 169.17 104.606 165.813L102.319 164.293L100.079 165.881L91.0291 172.297L84.7029 165.971L91.1181 156.921L92.706 154.681L91.1864 152.394C87.8298 147.343 85.4059 141.629 84.1688 135.487L83.6265 132.794L80.9191 132.333L70 130.473V121.527L80.9193 119.667L83.6265 119.206L84.1687 116.514C85.4058 110.371 87.8298 104.659 91.1866 99.606L92.7059 97.319L91.118 95.0791L84.7029 86.0303L91.0291 79.7038L100.078 86.1188L102.318 87.7067L104.605 86.1873C109.658 82.8303 115.371 80.4064 121.513 79.1696L124.206 78.6274L124.667 75.9198L126.526 65H135.473L137.333 75.9199L137.794 78.6275L140.487 79.1696C146.629 80.4064 152.341 82.8302 157.394 86.1873L159.681 87.7068L161.921 86.1188L170.97 79.7038L177.296 86.0304L170.882 95.0792L169.294 97.3191L170.813 99.606C174.17 104.659 176.594 110.371 177.83 116.513ZM196 133.85V118.151L181.752 115.724C180.41 109.058 177.78 102.864 174.145 97.3925L182.512 85.5894L171.411 74.4879L159.608 82.8556C154.136 79.2202 147.942 76.5905 141.276 75.2483L138.849 61H123.15L120.724 75.2483C114.058 76.5905 107.863 79.2202 102.391 82.8556L90.588 74.4879L79.4871 85.5894L87.8548 97.3925C84.2197 102.864 81.59 109.058 80.2475 115.724L66 118.151V133.85L80.2475 136.276C81.59 142.942 84.2197 149.137 87.8548 154.608L79.4871 166.412L90.588 177.512L102.392 169.145C107.863 172.78 114.058 175.41 120.724 176.752L123.15 191H138.849L141.276 176.752C147.942 175.41 154.136 172.78 159.608 169.145L171.411 177.512L182.512 166.412L174.145 154.608C177.78 149.137 180.41 142.942 181.752 136.276L196 133.85ZM170 126C170 147.539 152.539 165 131 165C109.461 165 92 147.539 92 126C92 104.461 109.461 87 131 87C152.539 87 170 104.461 170 126ZM174 126C174 149.748 154.748 169 131 169C107.252 169 88 149.748 88 126C88 102.252 107.252 83 131 83C154.748 83 174 102.252 174 126ZM131 137C137.075 137 142 132.075 142 126C142 119.925 137.075 115 131 115C124.925 115 120 119.925 120 126C120 132.075 124.925 137 131 137ZM131 141C139.284 141 146 134.284 146 126C146 117.716 139.284 111 131 111C122.716 111 116 117.716 116 126C116 134.284 122.716 141 131 141ZM152 126C152 137.598 142.598 147 131 147C119.402 147 110 137.598 110 126C110 114.402 119.402 105 131 105C142.598 105 152 114.402 152 126ZM156 126C156 139.807 144.807 151 131 151C117.193 151 106 139.807 106 126C106 112.193 117.193 101 131 101C144.807 101 156 112.193 156 126Z" fill="url(#paint0_linear)"/>
<g style="mix-blend-mode:screen">
<path d="M131 103.941C160.823 103.941 185 90.0751 185 72.9705C185 55.866 160.823 42 131 42C101.177 42 77 55.866 77 72.9705C77 90.0751 101.177 103.941 131 103.941Z" fill="url(#paint1_radial)"/>
</g>
<defs>
<filter id="filter0_d" x="0" y="0" width="262" height="262" filterUnits="userSpaceOnUse" color-interpolation-filters="sRGB">
<feFlood flood-opacity="0" result="BackgroundImageFix"/>
<feColorMatrix in="SourceAlpha" type="matrix" values="0 0 0 0 0 0 0 0 0 0 0 0 0 0 0 0 0 0 127 0" result="hardAlpha"/>
<feOffset dy="5"/>
<feGaussianBlur stdDeviation="10.5"/>
<feColorMatrix type="matrix" values="0 0 0 0 0 0 0 0 0 0 0 0 0 0 0 0 0 0 0.06 0"/>
<feBlend mode="normal" in2="BackgroundImageFix" result="effect1_dropShadow"/>
<feBlend mode="normal" in="SourceGraphic" in2="effect1_dropShadow" result="shape"/>
</filter>
<linearGradient id="paint0_linear" x1="89.7699" y1="106.04" x2="261.462" y2="250.172" gradientUnits="userSpaceOnUse">
<stop stop-color="#D3FAFF"/>
<stop offset="0.369792" stop-color="#95DEFF"/>
<stop offset="1" stop-color="#006DAA"/>
</linearGradient>
<radialGradient id="paint1_radial" cx="0" cy="0" r="1" gradientUnits="userSpaceOnUse" gradientTransform="translate(130.999 72.9686) scale(53.9995 30.9724)">
<stop stop-color="#0064BF"/>
<stop offset="0.18" stop-color="#0055A2"/>
<stop offset="0.5713" stop-color="#002E58"/>
<stop offset="1"/>
</radialGradient>
</defs>
</svg>
